<mxfile host="app.diagrams.net" modified="2024-04-11T09:08:42.709Z" agent="Mozilla/5.0 (Windows NT 10.0; Win64; x64) AppleWebKit/537.36 (KHTML, like Gecko) Chrome/123.0.0.0 Safari/537.36" version="24.2.2" etag="Ia_D1cVgMIZEjUOVbxVg" type="github">
  <diagram name="Seite-1" id="jFlPvoBV_Z3JeJWbZkwv">
    <mxGraphModel>
      <root>
        <mxCell id="0" />
        <mxCell id="1" parent="0" />
      </root>
    </mxGraphModel>
  </diagram>
</mxfile>
